<svg id="Layer_1" height="512" viewBox="0 0 128 128" width="512" xmlns="http://www.w3.org/2000/svg" xmlns:xlink="http://www.w3.org/1999/xlink" data-name="Layer 1"><linearGradient id="linear-gradient" gradientUnits="userSpaceOnUse" x1="105.154" x2="21.096" y1="106.029" y2="21.971"><stop offset="0" stop-color="#1a91e9"/><stop offset="1" stop-color="#ff3980"/></linearGradient><path d="m81.25 95.73a1.75 1.75 0 0 1 -1.75 1.75h-58.088a1.749 1.749 0 0 1 -1.75-1.75v-6.468h-6.391a1.75 1.75 0 0 1 -1.75-1.75v-55.242a1.75 1.75 0 0 1 1.75-1.75h11.521a1.75 1.75 0 0 1 0 3.5h-9.771v51.742h88.067v-51.742h-63.588a1.75 1.75 0 0 1 0-3.5h65.338a1.749 1.749 0 0 1 1.75 1.75v55.242a1.749 1.749 0 0 1 -1.75 1.75h-81.676v4.718h56.338a1.751 1.751 0 0 1 1.75 1.75zm6.625-1.75h-1.125a1.75 1.75 0 0 0 0 3.5h1.125a1.75 1.75 0 0 0 0-3.5zm25.1-55.242a1.749 1.749 0 0 0 -1.75 1.75v53.492h-15.975a1.75 1.75 0 0 0 0 3.5h17.729a1.75 1.75 0 0 0 1.75-1.75v-55.242a1.75 1.75 0 0 0 -1.75-1.75zm-80.85-4.718h.417a1.75 1.75 0 0 0 0-3.5h-.417a1.75 1.75 0 0 0 0 3.5zm-10.636 13.62a7.16 7.16 0 0 0 7.153-7.152 1.75 1.75 0 0 1 1.75-1.75h57.325a1.749 1.749 0 0 1 1.75 1.75 7.16 7.16 0 0 0 7.153 7.152 1.751 1.751 0 0 1 1.75 1.75v21a1.751 1.751 0 0 1 -1.75 1.75 7.161 7.161 0 0 0 -7.153 7.152 1.749 1.749 0 0 1 -1.75 1.75h-57.325a1.75 1.75 0 0 1 -1.75-1.75 7.161 7.161 0 0 0 -7.153-7.152 1.751 1.751 0 0 1 -1.75-1.75v-21a1.751 1.751 0 0 1 1.75-1.75zm49.191-5.4a21.132 21.132 0 0 1 4.845 30.927 1.75 1.75 0 1 1 -2.723-2.2 17.457 17.457 0 0 0 3.906-11.076 17.654 17.654 0 1 0 -17.653 17.653h27.056a10.68 10.68 0 0 1 8.759-8.759v-17.785a10.682 10.682 0 0 1 -8.759-8.759zm-47.441 26.545a10.682 10.682 0 0 1 8.761 8.759h15.43a21.117 21.117 0 0 1 0-35.306h-15.43a10.683 10.683 0 0 1 -8.761 8.762z" fill="url(#linear-gradient)"/></svg>